# Blender v2.93.0 OBJ File: 'Forest Arena Blend.blend'
# www.blender.org
v -0.095182 -0.010110 0.071340
v -0.065958 0.186404 0.048507
v -0.095182 -0.010110 -0.074589
v -0.065958 0.186404 -0.050994
v 0.050746 -0.010110 0.071340
v 0.033544 0.186404 0.048507
v 0.050746 -0.010110 -0.074589
v 0.033544 0.186404 -0.050994
v -0.061808 0.537241 0.044357
v -0.061808 0.537241 -0.046845
v 0.029394 0.537241 -0.046845
v 0.029394 0.537241 0.044357
v 0.028855 0.863698 0.039333
v 0.028855 0.863698 -0.041820
v 0.107133 0.842292 -0.041820
v 0.107133 0.842292 0.039333
v 0.056927 1.360689 -0.001244
v -0.331696 -0.010110 -0.120716
v -0.247460 0.186404 -0.083574
v -0.239219 -0.010110 -0.010505
v -0.184404 0.186404 -0.008427
v -0.441907 -0.010110 -0.028238
v -0.322607 0.186404 -0.020518
v -0.349429 -0.010110 0.081972
v -0.259551 0.186404 0.054629
v -0.253611 0.415152 -0.064939
v -0.203824 0.415152 -0.005605
v -0.263158 0.415152 0.044181
v -0.312944 0.415152 -0.015152
v -0.285255 0.692057 -0.022626
v -0.250990 0.692057 0.018211
v -0.290379 0.666290 0.051263
v -0.324645 0.666290 0.010426
v -0.465466 0.977761 0.078878
v 0.251399 -0.010110 0.078712
v 0.229477 0.191300 0.044139
v 0.238860 -0.010110 -0.064610
v 0.212827 0.199317 -0.052202
v 0.394721 -0.010110 0.066173
v 0.314266 0.186404 0.045137
v 0.382182 -0.010110 -0.077149
v 0.305716 0.186404 -0.052587
v 0.250907 0.320339 0.037842
v 0.240303 0.328026 -0.038497
v 0.314804 0.310641 -0.050597
v 0.325409 0.302954 0.025742
v 0.339862 0.581622 0.035301
v 0.332563 0.586912 -0.017239
v 0.375923 0.550392 -0.026940
v 0.383222 0.545101 0.025600
v 0.496039 0.849419 0.000955
v 0.134335 -0.010110 -0.228080
v 0.094739 0.186404 -0.173004
v -0.002666 -0.010110 -0.184158
v 0.001325 0.186404 -0.143056
v 0.090413 -0.010110 -0.365081
v 0.064791 0.186404 -0.266419
v -0.046589 -0.010110 -0.321159
v -0.028624 0.186404 -0.236470
v 0.070639 0.428799 -0.187840
v -0.005192 0.432995 -0.172631
v -0.020913 0.419153 -0.247200
v 0.054918 0.414957 -0.262408
v 0.053103 0.692295 -0.286485
v 0.000913 0.695183 -0.276018
v -0.009964 0.660680 -0.320730
v 0.042226 0.657792 -0.331197
v 0.004979 0.924234 -0.495592
v -0.091849 -0.010110 0.281398
v -0.080411 0.186404 0.210538
v 0.021868 -0.010110 0.193268
v -0.002873 0.186404 0.150446
v -0.003719 -0.010110 0.395115
v -0.020319 0.186404 0.288076
v 0.109998 -0.010110 0.306985
v 0.057219 0.186404 0.227984
v -0.052690 0.428799 0.216236
v 0.013366 0.432995 0.176009
v 0.053643 0.419153 0.240704
v -0.012413 0.414957 0.280931
v 0.016242 0.692295 0.302935
v 0.061705 0.695183 0.275249
v 0.087218 0.660680 0.313544
v 0.041755 0.657792 0.341230
v 0.114540 0.984492 0.504374
vn -0.6990 0.1047 0.7074
vn -0.6994 0.1061 -0.7068
vn -0.6141 -0.5075 -0.6044
vn -0.6144 -0.5085 0.6033
vn 0.7088 0.0835 -0.7005
vn 0.5970 -0.5231 -0.6082
vn 0.7083 0.0821 0.7011
vn 0.5972 -0.5241 0.6071
vn -0.7247 0.1112 0.6800
vn -0.7258 0.1104 -0.6790
vn 0.6703 -0.0685 0.7390
vn 0.6716 -0.0681 -0.7378
vn 0.7376 -0.0306 -0.6745
vn 0.7376 -0.0306 0.6745
vn -0.6564 0.1491 0.7395
vn -0.0195 0.9998 0.0000
vn -0.6564 0.1491 -0.7395
vn 0.1932 0.0715 -0.9785
vn 0.9929 -0.0874 0.0801
vn 0.7322 -0.6776 0.0694
vn -0.0686 -0.4929 -0.8674
vn 0.0215 0.0658 0.9976
vn -0.2169 -0.4839 0.8478
vn -0.9403 0.3281 -0.0902
vn -0.9240 -0.3745 -0.0772
vn 0.0986 0.1191 -0.9880
vn 0.9900 0.1218 0.0718
vn -0.9945 0.0045 -0.1043
vn -0.0700 0.0045 0.9975
vn -0.0166 -0.0650 0.9977
vn -0.9678 -0.2039 -0.1478
vn 0.1360 0.2816 -0.9498
vn -0.5015 0.8455 0.1834
vn 0.9231 0.3674 0.1132
vn -0.6748 0.0914 0.7323
vn -0.7958 0.0795 -0.6003
vn -0.5845 -0.5901 -0.5569
vn -0.4839 -0.5530 0.6782
vn 0.5878 0.1517 -0.7947
vn 0.6344 -0.4470 -0.6306
vn 0.6847 0.2036 0.6998
vn 0.7148 -0.4388 0.5445
vn -0.5994 0.1928 0.7769
vn -0.7735 0.2541 -0.5806
vn 0.7919 -0.0919 0.6037
vn 0.5851 -0.0370 -0.8101
vn 0.5634 -0.1065 -0.8193
vn 0.7716 -0.2149 0.5987
vn -0.5175 0.2883 0.8057
vn 0.4404 0.8977 -0.0103
vn -0.7313 0.3944 -0.5564
vn 0.8378 0.0570 0.5430
vn -0.4433 -0.0413 0.8954
vn -0.3899 -0.6393 0.6627
vn 0.7959 -0.5387 0.2763
vn -0.9159 0.1165 -0.3841
vn -0.7343 -0.4614 -0.4978
vn 0.4919 0.2718 -0.8271
vn 0.3900 -0.4022 -0.8284
vn 0.8177 0.1847 0.5451
vn -0.5071 0.2082 0.8364
vn 0.5536 -0.0763 -0.8293
vn -0.8760 -0.0532 -0.4794
vn -0.8621 -0.1806 -0.4735
vn 0.5868 -0.2785 -0.7603
vn 0.7968 0.3814 0.4687
vn -0.0531 0.7894 -0.6115
vn -0.5176 0.4646 0.7185
vn -0.9734 0.0353 -0.2262
vn 0.1038 -0.0535 -0.9932
vn 0.1536 -0.6456 -0.7481
vn -0.8351 -0.5496 0.0229
vn 0.9905 0.1318 0.0401
vn 0.8665 -0.4472 0.2220
vn -0.1901 0.2800 0.9410
vn -0.0735 -0.3944 0.9160
vn -0.9522 0.2113 -0.2207
vn 0.1751 0.2048 -0.9630
vn -0.2472 -0.0642 0.9668
vn 0.9855 -0.0884 0.1448
vn 0.9707 -0.1850 0.1534
vn -0.2551 -0.2785 0.9259
vn -0.9146 0.3584 -0.1874
vn 0.1703 0.8310 0.5295
vn 0.2713 0.4370 -0.8576
s 1
f 2//1 4//2 3//3 1//4
f 4//2 8//5 7//6 3//3
f 8//5 6//7 5//8 7//6
f 6//7 2//1 1//4 5//8
f 1//4 3//3 7//6 5//8
f 4//2 2//1 9//9 10//10
f 12//11 11//12 15//13 16//14
f 2//1 6//7 12//11 9//9
f 8//5 4//2 10//10 11//12
f 6//7 8//5 11//12 12//11
f 13//15 16//14 17//16
f 10//10 9//9 13//15 14//17
f 9//9 12//11 16//14 13//15
f 11//12 10//10 14//17 15//13
f 15//13 14//17 17//16
f 16//14 15//13 17//16
f 14//17 13//15 17//16
f 19//18 21//19 20//20 18//21
f 21//19 25//22 24//23 20//20
f 25//22 23//24 22//25 24//23
f 23//24 19//18 18//21 22//25
f 18//21 20//20 24//23 22//25
f 21//19 19//18 26//26 27//27
f 29//28 28//29 32//30 33//31
f 19//18 23//24 29//28 26//26
f 25//22 21//19 27//27 28//29
f 23//24 25//22 28//29 29//28
f 30//32 33//31 34//33
f 27//27 26//26 30//32 31//34
f 26//26 29//28 33//31 30//32
f 28//29 27//27 31//34 32//30
f 32//30 31//34 34//33
f 33//31 32//30 34//33
f 31//34 30//32 34//33
f 36//35 38//36 37//37 35//38
f 38//36 42//39 41//40 37//37
f 42//39 40//41 39//42 41//40
f 40//41 36//35 35//38 39//42
f 35//38 37//37 41//40 39//42
f 38//36 36//35 43//43 44//44
f 46//45 45//46 49//47 50//48
f 36//35 40//41 46//45 43//43
f 42//39 38//36 44//44 45//46
f 40//41 42//39 45//46 46//45
f 47//49 50//48 51//50
f 44//44 43//43 47//49 48//51
f 43//43 46//45 50//48 47//49
f 45//46 44//44 48//51 49//47
f 49//47 48//51 51//50
f 50//48 49//47 51//50
f 48//51 47//49 51//50
f 53//52 55//53 54//54 52//55
f 55//53 59//56 58//57 54//54
f 59//56 57//58 56//59 58//57
f 57//58 53//52 52//55 56//59
f 52//55 54//54 58//57 56//59
f 55//53 53//52 60//60 61//61
f 63//62 62//63 66//64 67//65
f 53//52 57//58 63//62 60//60
f 59//56 55//53 61//61 62//63
f 57//58 59//56 62//63 63//62
f 64//66 67//65 68//67
f 61//61 60//60 64//66 65//68
f 60//60 63//62 67//65 64//66
f 62//63 61//61 65//68 66//64
f 66//64 65//68 68//67
f 67//65 66//64 68//67
f 65//68 64//66 68//67
f 70//69 72//70 71//71 69//72
f 72//70 76//73 75//74 71//71
f 76//73 74//75 73//76 75//74
f 74//75 70//69 69//72 73//76
f 69//72 71//71 75//74 73//76
f 72//70 70//69 77//77 78//78
f 80//79 79//80 83//81 84//82
f 70//69 74//75 80//79 77//77
f 76//73 72//70 78//78 79//80
f 74//75 76//73 79//80 80//79
f 81//83 84//82 85//84
f 78//78 77//77 81//83 82//85
f 77//77 80//79 84//82 81//83
f 79//80 78//78 82//85 83//81
f 83//81 82//85 85//84
f 84//82 83//81 85//84
f 82//85 81//83 85//84
