# Blender v2.93.0 OBJ File: ''
# www.blender.org
o Cube_Cube.001
v -0.500000 0.000000 0.500000
v -0.500000 3.000000 0.500000
v -0.500000 0.000000 -0.500000
v -0.500000 3.000000 -0.500000
v 0.500000 0.000000 0.500000
v 0.500000 3.000000 0.500000
v 0.500000 0.000000 -0.500000
v 0.500000 3.000000 -0.500000
vn -1.0000 0.0000 0.0000
vn 0.0000 0.0000 -1.0000
vn 1.0000 0.0000 0.0000
vn 0.0000 0.0000 1.0000
vn 0.0000 1.0000 0.0000
s off
f 1//1 2//1 4//1 3//1
f 3//2 4//2 8//2 7//2
f 7//3 8//3 6//3 5//3
f 5//4 6//4 2//4 1//4
f 8//5 4//5 2//5 6//5
